<?xml version="1.0" encoding="UTF-8" standalone="no"?>
<svg
        xmlns:dc="http://purl.org/dc/elements/1.1/"
        xmlns:cc="http://creativecommons.org/ns#"
        xmlns:rdf="http://www.w3.org/1999/02/22-rdf-syntax-ns#"
        xmlns="http://www.w3.org/2000/svg"
        xmlns:sodipodi="http://sodipodi.sourceforge.net/DTD/sodipodi-0.dtd"
        xmlns:inkscape="http://www.inkscape.org/namespaces/inkscape"
        height="930"
        width="930"
        version="1.1"
        id="svg3791"
        sodipodi:docname="Octicons-git-branch.svg"
        inkscape:version="0.92.0 r15299">
    <metadata
            id="metadata3797">
        <rdf:RDF>
            <cc:Work
                    rdf:about="">
                <dc:format>image/svg+xml</dc:format>
                <dc:type
                        rdf:resource="http://purl.org/dc/dcmitype/StillImage"/>
                <dc:title></dc:title>
            </cc:Work>
        </rdf:RDF>
    </metadata>
    <defs
            id="defs3795"/>
    <sodipodi:namedview
            pagecolor="#ffffff"
            bordercolor="#666666"
            borderopacity="1"
            objecttolerance="10"
            gridtolerance="10"
            guidetolerance="10"
            inkscape:pageopacity="0"
            inkscape:pageshadow="2"
            inkscape:window-width="1680"
            inkscape:window-height="998"
            id="namedview3793"
            showgrid="false"
            inkscape:zoom="0.23046875"
            inkscape:cx="320"
            inkscape:cy="512"
            inkscape:window-x="-8"
            inkscape:window-y="-8"
            inkscape:window-maximized="1"
            inkscape:current-layer="svg3791"/>
    <path
            d="m 664,150 c -71,0 -128,57 -128,128 0,47 26,88 64,110 v 18 c 0,64 -64,128 -128,128 -53,0 -95,11 -128,29 V 260 C 382,238 408,197 408,150 408,79 351,22 280,22 209,22 152,79 152,150 c 0,47 26,88 64,110 v 419 c -38,22 -64,63 -64,110 0,71 57,128 128,128 71,0 128,-57 128,-128 0,-34 -13,-64 -34,-87 19,-23 49,-41 98,-41 128,0 256,-128 256,-256 v -18 c 38,-22 64,-63 64,-110 0,-71 -57,-128 -128,-128 z M 280,86 c 35,0 64,29 64,64 0,35 -29,64 -64,64 -35,0 -64,-29 -64,-64 0,-35 29,-64 64,-64 z m 0,768 c -35,0 -64,-29 -64,-64 0,-35 29,-64 64,-64 35,0 64,29 64,64 0,35 -29,64 -64,64 z M 664,342 c -35,0 -64,-29 -64,-64 0,-35 29,-64 64,-64 35,0 64,29 64,64 0,35 -29,64 -64,64 z"
            id="path3789"
            inkscape:connector-curvature="0"/>
</svg>
