<?xml version="1.0" encoding="UTF-8" standalone="no"?>
<svg
        xmlns:dc="http://purl.org/dc/elements/1.1/"
        xmlns:cc="http://creativecommons.org/ns#"
        xmlns:rdf="http://www.w3.org/1999/02/22-rdf-syntax-ns#"
        xmlns="http://www.w3.org/2000/svg"
        xmlns:sodipodi="http://sodipodi.sourceforge.net/DTD/sodipodi-0.dtd"
        xmlns:inkscape="http://www.inkscape.org/namespaces/inkscape"
        height="1024"
        width="1024"
        version="1.1"
        id="svg42"
        sodipodi:docname="icon-tag.svg"
        inkscape:version="0.92.0 r15299">
    <metadata
            id="metadata48">
        <rdf:RDF>
            <cc:Work
                    rdf:about="">
                <dc:format>image/svg+xml</dc:format>
                <dc:type
                        rdf:resource="http://purl.org/dc/dcmitype/StillImage"/>
                <dc:title></dc:title>
            </cc:Work>
        </rdf:RDF>
    </metadata>
    <defs
            id="defs46"/>
    <sodipodi:namedview
            pagecolor="#ffffff"
            bordercolor="#666666"
            borderopacity="1"
            objecttolerance="10"
            gridtolerance="10"
            guidetolerance="10"
            inkscape:pageopacity="0"
            inkscape:pageshadow="2"
            inkscape:window-width="1920"
            inkscape:window-height="1028"
            id="namedview44"
            showgrid="false"
            inkscape:zoom="0.23046875"
            inkscape:cx="448"
            inkscape:cy="512"
            inkscape:window-x="-8"
            inkscape:window-y="-8"
            inkscape:window-maximized="1"
            inkscape:current-layer="svg42"/>
    <path
            d="M 452,66 H 196 L 68,194 V 450 L 580,962 964,578 Z M 132,418 V 226 l 96,-96 H 420 L 868,578 580,866 Z M 516,322 324,514 580,770 772,578 Z m -96,192 96,-96 160,160 -96,96 z M 388,290 c 0,-53 -43,-96 -96,-96 -53,0 -96,43 -96,96 0,53 43,96 96,96 53,0 96,-43 96,-96 z m -96,32 c -17.656,0 -32,-14.344 -32,-32 0,-17.656 14.344,-32 32,-32 17.656,0 32,14.344 32,32 0,17.656 -14.344,32 -32,32 z"
            id="path40"
            inkscape:connector-curvature="0"/>
</svg>
